<svg xmlns="http://www.w3.org/2000/svg" viewBox="0 0 128 128">
  <rect width="128" height="128" rx="28" fill="#fff7ed"/>
  <circle cx="64" cy="64" r="44" fill="#b45309"/>
  <path d="M41 78c15 7 31 7 46 0 3-1 5 3 2 6-7 8-16 12-25 12s-18-4-25-12c-3-3-1-7 2-6Z" fill="#fff7ed"/>
  <path d="M37 58c9-20 45-31 60-12 5 7 4 18-2 25-4 4-10 0-8-5 3-8 1-15-5-19-11-8-31 1-37 15-2 5-11 2-8-4Z" fill="#f59e0b"/>
  <path d="M42 48c4-12 13-21 25-26 4-1 8 2 7 6-2 12-10 20-23 25-5 2-11 0-9-5Z" fill="#991b1b"/>
</svg>
